<svg width="158" height="14" viewBox="0 0 158 14" fill="none" xmlns="http://www.w3.org/2000/svg">
<path d="M4.746 10.6988C3.49533 10.6988 2.54333 10.3628 1.89 9.69084C1.246 9.01884 0.900667 8.09017 0.854 6.90484C0.844667 6.65284 0.84 6.24217 0.84 5.67284C0.84 5.09417 0.844667 4.67417 0.854 4.41284C0.900667 3.23684 1.25067 2.31284 1.904 1.64084C2.55733 0.959504 3.50467 0.618837 4.746 0.618837C5.57667 0.618837 6.28133 0.768171 6.86 1.06684C7.43867 1.35617 7.87733 1.73884 8.176 2.21484C8.47467 2.69084 8.638 3.1995 8.666 3.74084V3.76884C8.666 3.8435 8.63333 3.90884 8.568 3.96484C8.512 4.0115 8.44667 4.03484 8.372 4.03484H7.602C7.41533 4.03484 7.29867 3.9275 7.252 3.71284C7.09333 3.01284 6.80867 2.52284 6.398 2.24284C5.98733 1.9535 5.43667 1.80884 4.746 1.80884C3.14067 1.80884 2.31 2.70017 2.254 4.48284C2.24467 4.73484 2.24 5.12217 2.24 5.64484C2.24 6.1675 2.24467 6.56417 2.254 6.83484C2.31 8.6175 3.14067 9.50884 4.746 9.50884C5.43667 9.50884 5.98733 9.36884 6.398 9.08884C6.818 8.7995 7.10267 8.30484 7.252 7.60484C7.28 7.4835 7.322 7.3995 7.378 7.35284C7.434 7.30617 7.50867 7.28284 7.602 7.28284H8.372C8.456 7.28284 8.526 7.31084 8.582 7.36684C8.64733 7.4135 8.67533 7.47884 8.666 7.56284C8.638 8.1135 8.47467 8.62684 8.176 9.10284C7.87733 9.57884 7.43867 9.96617 6.86 10.2648C6.28133 10.5542 5.57667 10.6988 4.746 10.6988ZM13.3422 10.6988C12.3156 10.6988 11.5176 10.4095 10.9482 9.83084C10.3882 9.25217 10.0896 8.48217 10.0522 7.52084L10.0382 6.91884L10.0522 6.31684C10.0896 5.36484 10.3929 4.5995 10.9622 4.02084C11.5316 3.43284 12.3249 3.13884 13.3422 3.13884C14.3596 3.13884 15.1529 3.43284 15.7222 4.02084C16.2916 4.5995 16.5949 5.36484 16.6322 6.31684C16.6416 6.4195 16.6462 6.62017 16.6462 6.91884C16.6462 7.2175 16.6416 7.41817 16.6322 7.52084C16.5949 8.48217 16.2916 9.25217 15.7222 9.83084C15.1622 10.4095 14.3689 10.6988 13.3422 10.6988ZM13.3422 9.62084C13.9302 9.62084 14.3922 9.43417 14.7282 9.06084C15.0736 8.6875 15.2602 8.15084 15.2882 7.45084C15.2976 7.3575 15.3022 7.18017 15.3022 6.91884C15.3022 6.6575 15.2976 6.48017 15.2882 6.38684C15.2602 5.68684 15.0736 5.15017 14.7282 4.77684C14.3922 4.4035 13.9302 4.21684 13.3422 4.21684C12.7542 4.21684 12.2876 4.4035 11.9422 4.77684C11.5969 5.15017 11.4149 5.68684 11.3962 6.38684L11.3822 6.91884L11.3962 7.45084C11.4149 8.15084 11.5969 8.6875 11.9422 9.06084C12.2876 9.43417 12.7542 9.62084 13.3422 9.62084ZM18.7353 13.2188C18.6419 13.2188 18.5626 13.1862 18.4973 13.1208C18.4413 13.0648 18.4133 12.9902 18.4133 12.8968V3.60084C18.4133 3.5075 18.4413 3.43284 18.4973 3.37684C18.5626 3.3115 18.6419 3.27884 18.7353 3.27884H19.3793C19.4726 3.27884 19.5473 3.3115 19.6033 3.37684C19.6686 3.43284 19.7013 3.5075 19.7013 3.60084V4.21684C20.2239 3.49817 20.9893 3.13884 21.9973 3.13884C22.9773 3.13884 23.7099 3.44684 24.1953 4.06284C24.6899 4.67884 24.9559 5.47217 24.9933 6.44284C25.0026 6.5455 25.0073 6.70417 25.0073 6.91884C25.0073 7.1335 25.0026 7.29217 24.9933 7.39484C24.9559 8.35617 24.6899 9.1495 24.1953 9.77484C23.7006 10.3908 22.9679 10.6988 21.9973 10.6988C21.0266 10.6988 20.2706 10.3488 19.7293 9.64884V12.8968C19.7293 12.9902 19.7013 13.0648 19.6453 13.1208C19.5893 13.1862 19.5146 13.2188 19.4213 13.2188H18.7353ZM21.7033 9.56484C22.3659 9.56484 22.8466 9.3595 23.1453 8.94884C23.4533 8.53817 23.6213 7.99684 23.6493 7.32484C23.6586 7.2315 23.6633 7.09617 23.6633 6.91884C23.6633 5.15484 23.0099 4.27284 21.7033 4.27284C21.0593 4.27284 20.5739 4.4875 20.2473 4.91684C19.9299 5.33684 19.7573 5.84084 19.7293 6.42884L19.7153 6.96084L19.7293 7.50684C19.7479 8.0575 19.9253 8.53817 20.2613 8.94884C20.5973 9.3595 21.0779 9.56484 21.7033 9.56484ZM27.7397 13.2188C27.665 13.2188 27.5997 13.1908 27.5437 13.1348C27.4877 13.0788 27.4597 13.0135 27.4597 12.9388C27.4597 12.8735 27.483 12.7895 27.5297 12.6868L28.6077 10.1248L25.9337 3.81084C25.887 3.6895 25.8637 3.61017 25.8637 3.57284C25.8637 3.48884 25.8917 3.41884 25.9477 3.36284C26.0037 3.30684 26.0737 3.27884 26.1577 3.27884H26.8437C26.993 3.27884 27.105 3.35817 27.1797 3.51684L29.3077 8.61284L31.4917 3.51684C31.5664 3.35817 31.683 3.27884 31.8417 3.27884H32.4997C32.5837 3.27884 32.6537 3.30684 32.7097 3.36284C32.7657 3.41884 32.7937 3.48417 32.7937 3.55884C32.7937 3.58684 32.7704 3.67084 32.7237 3.81084L28.7477 12.9808C28.673 13.1395 28.5564 13.2188 28.3977 13.2188H27.7397ZM34.5123 10.5588C34.419 10.5588 34.3396 10.5308 34.2743 10.4748C34.2183 10.4095 34.1903 10.3302 34.1903 10.2368V3.61484C34.1903 3.5215 34.2183 3.44217 34.2743 3.37684C34.3396 3.3115 34.419 3.27884 34.5123 3.27884H35.1563C35.2496 3.27884 35.329 3.3115 35.3943 3.37684C35.4596 3.44217 35.4923 3.5215 35.4923 3.61484V4.23084C35.875 3.59617 36.5283 3.27884 37.4523 3.27884H37.9983C38.0916 3.27884 38.1663 3.3115 38.2223 3.37684C38.2876 3.43284 38.3203 3.5075 38.3203 3.60084V4.17484C38.3203 4.26817 38.2876 4.34284 38.2223 4.39884C38.1663 4.45484 38.0916 4.48284 37.9983 4.48284H37.1583C36.6543 4.48284 36.2576 4.63217 35.9683 4.93084C35.679 5.22017 35.5343 5.61684 35.5343 6.12084V10.2368C35.5343 10.3302 35.5016 10.4095 35.4363 10.4748C35.371 10.5308 35.2916 10.5588 35.1983 10.5588H34.5123ZM39.7187 1.92084C39.6253 1.92084 39.546 1.89284 39.4807 1.83684C39.4247 1.7715 39.3967 1.69217 39.3967 1.59884V0.842838C39.3967 0.749504 39.4247 0.670171 39.4807 0.604838C39.546 0.539504 39.6253 0.506837 39.7187 0.506837H40.6007C40.694 0.506837 40.7733 0.539504 40.8387 0.604838C40.904 0.670171 40.9367 0.749504 40.9367 0.842838V1.59884C40.9367 1.69217 40.904 1.7715 40.8387 1.83684C40.7733 1.89284 40.694 1.92084 40.6007 1.92084H39.7187ZM39.8307 10.5588C39.7373 10.5588 39.658 10.5308 39.5927 10.4748C39.5367 10.4095 39.5087 10.3302 39.5087 10.2368V3.60084C39.5087 3.5075 39.5367 3.43284 39.5927 3.37684C39.658 3.3115 39.7373 3.27884 39.8307 3.27884H40.5027C40.596 3.27884 40.6707 3.3115 40.7267 3.37684C40.792 3.43284 40.8247 3.5075 40.8247 3.60084V10.2368C40.8247 10.3302 40.792 10.4095 40.7267 10.4748C40.6707 10.5308 40.596 10.5588 40.5027 10.5588H39.8307ZM45.8813 13.6388C45.1159 13.6388 44.4999 13.5082 44.0333 13.2468C43.5666 12.9948 43.2353 12.7055 43.0393 12.3788C42.8433 12.0522 42.7359 11.7582 42.7173 11.4968C42.7079 11.4035 42.7359 11.3242 42.8013 11.2588C42.8759 11.1935 42.9553 11.1608 43.0393 11.1608H43.7113C43.7953 11.1608 43.8653 11.1795 43.9213 11.2168C43.9773 11.2635 44.0239 11.3428 44.0613 11.4548C44.1733 11.7535 44.3553 12.0102 44.6073 12.2248C44.8686 12.4488 45.2699 12.5608 45.8113 12.5608C46.5019 12.5608 47.0106 12.4115 47.3373 12.1128C47.6639 11.8235 47.8273 11.3055 47.8273 10.5588V9.60684C47.5846 9.91484 47.2766 10.1622 46.9033 10.3488C46.5299 10.5262 46.0866 10.6148 45.5733 10.6148C44.5839 10.6148 43.8419 10.3022 43.3473 9.67684C42.8619 9.04217 42.6053 8.2395 42.5773 7.26884L42.5633 6.87684L42.5773 6.49884C42.6053 5.5375 42.8666 4.7395 43.3613 4.10484C43.8559 3.46084 44.5933 3.13884 45.5733 3.13884C46.5533 3.13884 47.3186 3.49817 47.8693 4.21684V3.61484C47.8693 3.5215 47.8973 3.44217 47.9533 3.37684C48.0186 3.3115 48.0979 3.27884 48.1913 3.27884H48.8353C48.9286 3.27884 49.0079 3.3115 49.0733 3.37684C49.1386 3.44217 49.1713 3.5215 49.1713 3.61484V10.4048C49.1713 12.5608 48.0746 13.6388 45.8813 13.6388ZM45.8533 9.49484C46.4879 9.49484 46.9686 9.28484 47.2953 8.86484C47.6219 8.44484 47.7993 7.9455 47.8273 7.36684C47.8366 7.28284 47.8413 7.1195 47.8413 6.87684C47.8413 6.6435 47.8366 6.48484 47.8273 6.40084C47.7993 5.82217 47.6219 5.32284 47.2953 4.90284C46.9779 4.48284 46.4973 4.27284 45.8533 4.27284C45.1906 4.27284 44.7099 4.47817 44.4113 4.88884C44.1126 5.2995 43.9493 5.84084 43.9213 6.51284L43.9073 6.87684L43.9213 7.25484C43.9493 7.9175 44.1126 8.45884 44.4113 8.87884C44.7099 9.2895 45.1906 9.49484 45.8533 9.49484ZM51.5888 10.5588C51.4955 10.5588 51.4161 10.5308 51.3508 10.4748C51.2948 10.4095 51.2668 10.3302 51.2668 10.2368V0.940837C51.2668 0.847504 51.2948 0.772838 51.3508 0.716838C51.4161 0.651504 51.4955 0.618837 51.5888 0.618837H52.2888C52.3821 0.618837 52.4568 0.651504 52.5128 0.716838C52.5781 0.772838 52.6108 0.847504 52.6108 0.940837V4.20284C52.8815 3.8575 53.1988 3.59617 53.5628 3.41884C53.9268 3.23217 54.3795 3.13884 54.9208 3.13884C55.8168 3.13884 56.5121 3.42817 57.0068 4.00684C57.5108 4.57617 57.7628 5.33684 57.7628 6.28884V10.2368C57.7628 10.3302 57.7301 10.4095 57.6648 10.4748C57.6088 10.5308 57.5341 10.5588 57.4408 10.5588H56.7408C56.6475 10.5588 56.5681 10.5308 56.5028 10.4748C56.4468 10.4095 56.4188 10.3302 56.4188 10.2368V6.35884C56.4188 5.69617 56.2555 5.18284 55.9288 4.81884C55.6115 4.45484 55.1495 4.27284 54.5428 4.27284C53.9548 4.27284 53.4835 4.4595 53.1288 4.83284C52.7835 5.19684 52.6108 5.7055 52.6108 6.35884V10.2368C52.6108 10.3302 52.5781 10.4095 52.5128 10.4748C52.4568 10.5308 52.3821 10.5588 52.2888 10.5588H51.5888ZM62.5303 10.5588C61.0557 10.5588 60.3183 9.7375 60.3183 8.09484V4.39884H59.2263C59.133 4.39884 59.0537 4.37084 58.9883 4.31484C58.9323 4.2495 58.9043 4.17017 58.9043 4.07684V3.60084C58.9043 3.5075 58.9323 3.43284 58.9883 3.37684C59.0537 3.3115 59.133 3.27884 59.2263 3.27884H60.3183V0.940837C60.3183 0.847504 60.3463 0.772838 60.4023 0.716838C60.4677 0.651504 60.547 0.618837 60.6403 0.618837H61.2983C61.3917 0.618837 61.4663 0.651504 61.5223 0.716838C61.5877 0.772838 61.6203 0.847504 61.6203 0.940837V3.27884H63.3563C63.4497 3.27884 63.5243 3.3115 63.5803 3.37684C63.6457 3.43284 63.6783 3.5075 63.6783 3.60084V4.07684C63.6783 4.17017 63.6457 4.2495 63.5803 4.31484C63.5243 4.37084 63.4497 4.39884 63.3563 4.39884H61.6203V7.99684C61.6203 8.4635 61.6997 8.81817 61.8583 9.06084C62.017 9.29417 62.2783 9.41084 62.6423 9.41084H63.4963C63.5897 9.41084 63.6643 9.4435 63.7203 9.50884C63.7857 9.56484 63.8183 9.6395 63.8183 9.73284V10.2368C63.8183 10.3302 63.7857 10.4095 63.7203 10.4748C63.6643 10.5308 63.5897 10.5588 63.4963 10.5588H62.5303ZM73.3347 10.6988C72.4201 10.6988 71.5754 10.4748 70.8007 10.0268C70.0354 9.5695 69.4241 8.95817 68.9667 8.19284C68.5187 7.41817 68.2947 6.5735 68.2947 5.65884C68.2947 4.74417 68.5187 3.90417 68.9667 3.13884C69.4241 2.36417 70.0354 1.75284 70.8007 1.30484C71.5754 0.847504 72.4201 0.618837 73.3347 0.618837C74.2494 0.618837 75.0894 0.847504 75.8547 1.30484C76.6294 1.75284 77.2407 2.36417 77.6887 3.13884C78.1461 3.90417 78.3747 4.74417 78.3747 5.65884C78.3747 6.5735 78.1461 7.41817 77.6887 8.19284C77.2407 8.95817 76.6294 9.5695 75.8547 10.0268C75.0894 10.4748 74.2494 10.6988 73.3347 10.6988ZM73.3347 9.81684C74.0814 9.81684 74.7674 9.63017 75.3927 9.25684C76.0181 8.87417 76.5127 8.3655 76.8767 7.73084C77.2501 7.09617 77.4367 6.4055 77.4367 5.65884C77.4367 4.91217 77.2501 4.2215 76.8767 3.58684C76.5127 2.94284 76.0134 2.43417 75.3787 2.06084C74.7534 1.67817 74.0721 1.48684 73.3347 1.48684C72.5974 1.48684 71.9114 1.67817 71.2767 2.06084C70.6514 2.43417 70.1567 2.94284 69.7927 3.58684C69.4287 4.2215 69.2467 4.91217 69.2467 5.65884C69.2467 6.4055 69.4287 7.09617 69.7927 7.73084C70.1567 8.3655 70.6514 8.87417 71.2767 9.25684C71.9114 9.63017 72.5974 9.81684 73.3347 9.81684ZM73.3347 8.34684C72.6441 8.34684 72.0934 8.13684 71.6827 7.71684C71.2721 7.29684 71.0574 6.7695 71.0387 6.13484L71.0247 5.64484L71.0387 5.15484C71.0574 4.52017 71.2721 3.99284 71.6827 3.57284C72.0934 3.15284 72.6441 2.94284 73.3347 2.94284C73.8201 2.94284 74.2307 3.02217 74.5667 3.18084C74.9121 3.3395 75.1687 3.54017 75.3367 3.78284C75.5141 4.01617 75.6074 4.25417 75.6167 4.49684C75.6167 4.59017 75.5887 4.66484 75.5327 4.72084C75.4767 4.77684 75.4021 4.80484 75.3087 4.80484H74.8607C74.7674 4.80484 74.6974 4.7815 74.6507 4.73484C74.6041 4.68817 74.5621 4.62284 74.5247 4.53884C74.4407 4.32417 74.3054 4.16084 74.1187 4.04884C73.9321 3.93684 73.6707 3.88084 73.3347 3.88084C72.8867 3.88084 72.5694 4.00684 72.3827 4.25884C72.2054 4.51084 72.1074 4.81417 72.0887 5.16884L72.0747 5.64484L72.0887 6.12084C72.1074 6.4755 72.2054 6.77884 72.3827 7.03084C72.5694 7.28284 72.8867 7.40884 73.3347 7.40884C73.6707 7.40884 73.9321 7.35284 74.1187 7.24084C74.3054 7.12884 74.4407 6.9655 74.5247 6.75084C74.5621 6.66684 74.6041 6.6015 74.6507 6.55484C74.6974 6.50817 74.7674 6.48484 74.8607 6.48484H75.3087C75.4021 6.48484 75.4767 6.51284 75.5327 6.56884C75.5887 6.62484 75.6167 6.6995 75.6167 6.79284C75.6074 7.0355 75.5141 7.27817 75.3367 7.52084C75.1687 7.75417 74.9121 7.95017 74.5667 8.10884C74.2307 8.2675 73.8201 8.34684 73.3347 8.34684ZM86.9188 10.6988C86.1441 10.6988 85.4721 10.5775 84.9028 10.3348C84.3428 10.0922 83.9134 9.77484 83.6148 9.38284C83.3161 8.9815 83.1574 8.55217 83.1388 8.09484C83.1388 8.02017 83.1668 7.95484 83.2228 7.89884C83.2881 7.8335 83.3628 7.80084 83.4468 7.80084H84.1608C84.3381 7.80084 84.4594 7.89417 84.5248 8.08084C84.6088 8.47284 84.8468 8.80884 85.2388 9.08884C85.6401 9.36884 86.2001 9.50884 86.9188 9.50884C87.6934 9.50884 88.2768 9.3735 88.6688 9.10284C89.0608 8.82284 89.2568 8.4355 89.2568 7.94084C89.2568 7.6235 89.1588 7.36684 88.9628 7.17084C88.7761 6.97484 88.4961 6.80217 88.1228 6.65284C87.7494 6.5035 87.1894 6.31684 86.4428 6.09284C85.7148 5.8875 85.1361 5.66817 84.7068 5.43484C84.2774 5.2015 83.9554 4.91217 83.7408 4.56684C83.5261 4.2215 83.4188 3.7875 83.4188 3.26484C83.4188 2.76084 83.5541 2.30817 83.8248 1.90684C84.1048 1.5055 84.5014 1.19284 85.0148 0.968837C85.5281 0.735504 86.1394 0.618837 86.8488 0.618837C87.5768 0.618837 88.2021 0.749504 88.7248 1.01084C89.2474 1.26284 89.6441 1.58484 89.9148 1.97684C90.1854 2.36884 90.3301 2.76084 90.3488 3.15284C90.3488 3.2275 90.3208 3.29284 90.2648 3.34884C90.2181 3.40484 90.1481 3.43284 90.0548 3.43284H89.3128C89.1168 3.43284 88.9954 3.34417 88.9488 3.16684C88.8928 2.77484 88.6734 2.45284 88.2908 2.20084C87.9081 1.9395 87.4274 1.80884 86.8488 1.80884C86.2141 1.80884 85.7148 1.93017 85.3508 2.17284C84.9868 2.4155 84.8048 2.77484 84.8048 3.25084C84.8048 3.56817 84.8888 3.8295 85.0568 4.03484C85.2341 4.24017 85.5001 4.42217 85.8548 4.58084C86.2094 4.73017 86.7274 4.90284 87.4088 5.09884C88.2021 5.3135 88.8274 5.5375 89.2848 5.77084C89.7421 5.99484 90.0828 6.2795 90.3068 6.62484C90.5308 6.96084 90.6428 7.39017 90.6428 7.91284C90.6428 8.78084 90.3068 9.46217 89.6348 9.95684C88.9628 10.4515 88.0574 10.6988 86.9188 10.6988ZM92.6318 10.5588C92.5384 10.5588 92.4591 10.5308 92.3938 10.4748C92.3378 10.4095 92.3098 10.3302 92.3098 10.2368V0.940837C92.3098 0.847504 92.3378 0.772838 92.3938 0.716838C92.4591 0.651504 92.5384 0.618837 92.6318 0.618837H93.2898C93.3831 0.618837 93.4578 0.651504 93.5138 0.716838C93.5791 0.772838 93.6118 0.847504 93.6118 0.940837V5.81284L96.3698 3.51684C96.3978 3.49817 96.4444 3.46084 96.5098 3.40484C96.5751 3.35817 96.6358 3.3255 96.6918 3.30684C96.7571 3.28817 96.8364 3.27884 96.9298 3.27884H97.6718C97.7558 3.27884 97.8258 3.30684 97.8818 3.36284C97.9378 3.41884 97.9658 3.48884 97.9658 3.57284C97.9658 3.6755 97.9098 3.76417 97.7978 3.83884L94.5638 6.52684L98.1478 10.0128C98.2598 10.1062 98.3158 10.1902 98.3158 10.2648C98.3158 10.3488 98.2878 10.4188 98.2318 10.4748C98.1758 10.5308 98.1058 10.5588 98.0218 10.5588H97.2938C97.1538 10.5588 97.0511 10.5448 96.9858 10.5168C96.9298 10.4888 96.8458 10.4235 96.7338 10.3208L93.6118 7.33884V10.2368C93.6118 10.3302 93.5791 10.4095 93.5138 10.4748C93.4578 10.5308 93.3831 10.5588 93.2898 10.5588H92.6318ZM99.7245 1.92084C99.6312 1.92084 99.5518 1.89284 99.4865 1.83684C99.4305 1.7715 99.4025 1.69217 99.4025 1.59884V0.842838C99.4025 0.749504 99.4305 0.670171 99.4865 0.604838C99.5518 0.539504 99.6312 0.506837 99.7245 0.506837H100.607C100.7 0.506837 100.779 0.539504 100.845 0.604838C100.91 0.670171 100.943 0.749504 100.943 0.842838V1.59884C100.943 1.69217 100.91 1.7715 100.845 1.83684C100.779 1.89284 100.7 1.92084 100.607 1.92084H99.7245ZM99.8365 10.5588C99.7432 10.5588 99.6638 10.5308 99.5985 10.4748C99.5425 10.4095 99.5145 10.3302 99.5145 10.2368V3.60084C99.5145 3.5075 99.5425 3.43284 99.5985 3.37684C99.6638 3.3115 99.7432 3.27884 99.8365 3.27884H100.509C100.602 3.27884 100.677 3.3115 100.733 3.37684C100.798 3.43284 100.831 3.5075 100.831 3.60084V10.2368C100.831 10.3302 100.798 10.4095 100.733 10.4748C100.677 10.5308 100.602 10.5588 100.509 10.5588H99.8365ZM103.227 10.5588C103.134 10.5588 103.054 10.5308 102.989 10.4748C102.933 10.4095 102.905 10.3302 102.905 10.2368V3.60084C102.905 3.5075 102.933 3.43284 102.989 3.37684C103.054 3.3115 103.134 3.27884 103.227 3.27884H103.885C103.978 3.27884 104.053 3.3115 104.109 3.37684C104.174 3.43284 104.207 3.5075 104.207 3.60084V4.21684C104.478 3.8715 104.795 3.6055 105.159 3.41884C105.532 3.23217 105.994 3.13884 106.545 3.13884C107.441 3.13884 108.136 3.42817 108.631 4.00684C109.135 4.57617 109.387 5.33684 109.387 6.28884V10.2368C109.387 10.3302 109.354 10.4095 109.289 10.4748C109.233 10.5308 109.158 10.5588 109.065 10.5588H108.365C108.272 10.5588 108.192 10.5308 108.127 10.4748C108.071 10.4095 108.043 10.3302 108.043 10.2368V6.35884C108.043 5.69617 107.88 5.18284 107.553 4.81884C107.236 4.45484 106.774 4.27284 106.167 4.27284C105.579 4.27284 105.112 4.4595 104.767 4.83284C104.422 5.19684 104.249 5.7055 104.249 6.35884V10.2368C104.249 10.3302 104.216 10.4095 104.151 10.4748C104.095 10.5308 104.02 10.5588 103.927 10.5588H103.227ZM114.335 10.6988C113.337 10.6988 112.553 10.4188 111.983 9.85884C111.423 9.2895 111.125 8.49617 111.087 7.47884L111.073 6.91884L111.087 6.35884C111.125 5.3415 111.423 4.55284 111.983 3.99284C112.553 3.4235 113.337 3.13884 114.335 3.13884C115.007 3.13884 115.577 3.26017 116.043 3.50284C116.51 3.7455 116.855 4.04417 117.079 4.39884C117.313 4.7535 117.439 5.10817 117.457 5.46284C117.467 5.55617 117.439 5.63084 117.373 5.68684C117.308 5.74284 117.229 5.77084 117.135 5.77084H116.463C116.37 5.77084 116.3 5.75217 116.253 5.71484C116.207 5.6775 116.16 5.60284 116.113 5.49084C115.955 5.04284 115.731 4.7255 115.441 4.53884C115.152 4.34284 114.788 4.24484 114.349 4.24484C113.771 4.24484 113.309 4.42684 112.963 4.79084C112.627 5.1455 112.445 5.6915 112.417 6.42884L112.403 6.93284L112.417 7.40884C112.445 8.1555 112.627 8.70617 112.963 9.06084C113.299 9.4155 113.761 9.59284 114.349 9.59284C114.788 9.59284 115.152 9.4995 115.441 9.31284C115.731 9.11684 115.955 8.79484 116.113 8.34684C116.16 8.23484 116.207 8.16017 116.253 8.12284C116.3 8.07617 116.37 8.05284 116.463 8.05284H117.135C117.229 8.05284 117.308 8.0855 117.373 8.15084C117.439 8.20684 117.467 8.2815 117.457 8.37484C117.439 8.72017 117.313 9.07484 117.079 9.43884C116.855 9.7935 116.51 10.0922 116.043 10.3348C115.586 10.5775 115.017 10.6988 114.335 10.6988ZM121.15 10.6988C120.693 10.6988 120.268 10.6055 119.876 10.4188C119.484 10.2322 119.171 9.98017 118.938 9.66284C118.714 9.33617 118.602 8.97684 118.602 8.58484C118.602 7.96884 118.854 7.46484 119.358 7.07284C119.871 6.6715 120.562 6.41017 121.43 6.28884L123.516 5.99484V5.58884C123.516 4.63684 122.97 4.16084 121.878 4.16084C121.467 4.16084 121.131 4.2495 120.87 4.42684C120.609 4.59484 120.413 4.7955 120.282 5.02884C120.254 5.11284 120.217 5.1735 120.17 5.21084C120.133 5.24817 120.077 5.26684 120.002 5.26684H119.4C119.316 5.26684 119.241 5.23884 119.176 5.18284C119.12 5.1175 119.092 5.04284 119.092 4.95884C119.101 4.73484 119.204 4.48284 119.4 4.20284C119.605 3.9135 119.918 3.66617 120.338 3.46084C120.758 3.24617 121.276 3.13884 121.892 3.13884C122.937 3.13884 123.689 3.38617 124.146 3.88084C124.603 4.36617 124.832 4.97284 124.832 5.70084V10.2368C124.832 10.3302 124.799 10.4095 124.734 10.4748C124.678 10.5308 124.603 10.5588 124.51 10.5588H123.866C123.773 10.5588 123.693 10.5308 123.628 10.4748C123.572 10.4095 123.544 10.3302 123.544 10.2368V9.63484C123.339 9.9335 123.04 10.1855 122.648 10.3908C122.256 10.5962 121.757 10.6988 121.15 10.6988ZM121.444 9.64884C122.051 9.64884 122.545 9.45284 122.928 9.06084C123.32 8.6595 123.516 8.0855 123.516 7.33884V6.94684L121.892 7.18484C121.229 7.27817 120.73 7.43684 120.394 7.66084C120.058 7.8755 119.89 8.15084 119.89 8.48684C119.89 8.86017 120.044 9.1495 120.352 9.35484C120.66 9.55084 121.024 9.64884 121.444 9.64884ZM129.365 10.6988C128.711 10.6988 128.161 10.5962 127.713 10.3908C127.274 10.1762 126.943 9.9335 126.719 9.66284C126.504 9.39217 126.397 9.16817 126.397 8.99084C126.397 8.8975 126.429 8.8275 126.495 8.78084C126.569 8.72484 126.644 8.69684 126.719 8.69684H127.349C127.442 8.69684 127.526 8.7435 127.601 8.83684C127.825 9.09817 128.067 9.3035 128.329 9.45284C128.59 9.60217 128.94 9.67684 129.379 9.67684C129.864 9.67684 130.256 9.5835 130.555 9.39684C130.863 9.20084 131.017 8.93484 131.017 8.59884C131.017 8.37484 130.951 8.19284 130.821 8.05284C130.699 7.9035 130.485 7.7775 130.177 7.67484C129.878 7.56284 129.43 7.4415 128.833 7.31084C128.021 7.1335 127.442 6.87684 127.097 6.54084C126.761 6.20484 126.593 5.77084 126.593 5.23884C126.593 4.88417 126.695 4.54817 126.901 4.23084C127.115 3.90417 127.423 3.64284 127.825 3.44684C128.235 3.2415 128.725 3.13884 129.295 3.13884C129.892 3.13884 130.401 3.23684 130.821 3.43284C131.241 3.62884 131.553 3.86217 131.759 4.13284C131.973 4.39417 132.081 4.6135 132.081 4.79084C132.081 4.87484 132.048 4.94484 131.983 5.00084C131.927 5.05684 131.857 5.08484 131.773 5.08484H131.185C131.073 5.08484 130.979 5.03817 130.905 4.94484C130.755 4.7675 130.625 4.63217 130.513 4.53884C130.41 4.43617 130.256 4.3475 130.051 4.27284C129.855 4.19817 129.603 4.16084 129.295 4.16084C128.847 4.16084 128.501 4.25884 128.259 4.45484C128.016 4.6415 127.895 4.88884 127.895 5.19684C127.895 5.39284 127.946 5.56084 128.049 5.70084C128.151 5.8315 128.347 5.95284 128.637 6.06484C128.935 6.17684 129.365 6.2935 129.925 6.41484C130.811 6.6015 131.437 6.87217 131.801 7.22684C132.174 7.57217 132.361 8.0155 132.361 8.55684C132.361 8.95817 132.244 9.32217 132.011 9.64884C131.777 9.9755 131.432 10.2322 130.975 10.4188C130.527 10.6055 129.99 10.6988 129.365 10.6988ZM134.317 10.5588C134.224 10.5588 134.145 10.5308 134.079 10.4748C134.023 10.4095 133.995 10.3302 133.995 10.2368V0.940837C133.995 0.847504 134.023 0.772838 134.079 0.716838C134.145 0.651504 134.224 0.618837 134.317 0.618837H135.017C135.111 0.618837 135.185 0.651504 135.241 0.716838C135.307 0.772838 135.339 0.847504 135.339 0.940837V4.20284C135.61 3.8575 135.927 3.59617 136.291 3.41884C136.655 3.23217 137.108 3.13884 137.649 3.13884C138.545 3.13884 139.241 3.42817 139.735 4.00684C140.239 4.57617 140.491 5.33684 140.491 6.28884V10.2368C140.491 10.3302 140.459 10.4095 140.393 10.4748C140.337 10.5308 140.263 10.5588 140.169 10.5588H139.469C139.376 10.5588 139.297 10.5308 139.231 10.4748C139.175 10.4095 139.147 10.3302 139.147 10.2368V6.35884C139.147 5.69617 138.984 5.18284 138.657 4.81884C138.34 4.45484 137.878 4.27284 137.271 4.27284C136.683 4.27284 136.212 4.4595 135.857 4.83284C135.512 5.19684 135.339 5.7055 135.339 6.35884V10.2368C135.339 10.3302 135.307 10.4095 135.241 10.4748C135.185 10.5308 135.111 10.5588 135.017 10.5588H134.317ZM142.737 10.5588C142.643 10.5588 142.564 10.5308 142.499 10.4748C142.443 10.4095 142.415 10.3302 142.415 10.2368V9.22884C142.415 9.1355 142.443 9.06084 142.499 9.00484C142.564 8.9395 142.643 8.90684 142.737 8.90684H143.745C143.838 8.90684 143.917 8.9395 143.983 9.00484C144.048 9.06084 144.081 9.1355 144.081 9.22884V10.2368C144.081 10.3302 144.048 10.4095 143.983 10.4748C143.917 10.5308 143.838 10.5588 143.745 10.5588H142.737ZM146.362 10.5588C146.269 10.5588 146.189 10.5308 146.124 10.4748C146.068 10.4095 146.04 10.3302 146.04 10.2368V3.61484C146.04 3.5215 146.068 3.44217 146.124 3.37684C146.189 3.3115 146.269 3.27884 146.362 3.27884H147.006C147.099 3.27884 147.179 3.3115 147.244 3.37684C147.309 3.44217 147.342 3.5215 147.342 3.61484V4.23084C147.725 3.59617 148.378 3.27884 149.302 3.27884H149.848C149.941 3.27884 150.016 3.3115 150.072 3.37684C150.137 3.43284 150.17 3.5075 150.17 3.60084V4.17484C150.17 4.26817 150.137 4.34284 150.072 4.39884C150.016 4.45484 149.941 4.48284 149.848 4.48284H149.008C148.504 4.48284 148.107 4.63217 147.818 4.93084C147.529 5.22017 147.384 5.61684 147.384 6.12084V10.2368C147.384 10.3302 147.351 10.4095 147.286 10.4748C147.221 10.5308 147.141 10.5588 147.048 10.5588H146.362ZM154.074 10.6988C153.188 10.6988 152.502 10.4142 152.016 9.84484C151.531 9.26617 151.288 8.50084 151.288 7.54884V3.60084C151.288 3.5075 151.316 3.43284 151.372 3.37684C151.438 3.3115 151.517 3.27884 151.61 3.27884H152.31C152.404 3.27884 152.478 3.3115 152.534 3.37684C152.6 3.43284 152.632 3.5075 152.632 3.60084V7.47884C152.632 8.8695 153.239 9.56484 154.452 9.56484C155.04 9.56484 155.507 9.38284 155.852 9.01884C156.198 8.6455 156.37 8.13217 156.37 7.47884V3.60084C156.37 3.5075 156.398 3.43284 156.454 3.37684C156.52 3.3115 156.599 3.27884 156.692 3.27884H157.392C157.486 3.27884 157.56 3.3115 157.616 3.37684C157.672 3.43284 157.7 3.5075 157.7 3.60084V10.2368C157.7 10.3302 157.672 10.4095 157.616 10.4748C157.56 10.5308 157.486 10.5588 157.392 10.5588H156.734C156.641 10.5588 156.562 10.5308 156.496 10.4748C156.44 10.4095 156.412 10.3302 156.412 10.2368V9.62084C156.151 9.9755 155.834 10.2462 155.46 10.4328C155.087 10.6102 154.625 10.6988 154.074 10.6988Z" fill="white" fill-opacity="0.5"/>
</svg>
